<?xml version="1.0" standalone="no"?>
<!DOCTYPE svg PUBLIC "-//W3C//DTD SVG 20010904//EN"
 "http://www.w3.org/TR/2001/REC-SVG-20010904/DTD/svg10.dtd">
<svg version="1.0" xmlns="http://www.w3.org/2000/svg"
 width="70.000000pt" height="70.000000pt" viewBox="0 0 70.000000 70.000000"
 preserveAspectRatio="xMidYMid meet">
<metadata>
Created by potrace 1.14, written by Peter Selinger 2001-2017
</metadata>
<g transform="translate(0.000000,70.000000) scale(0.100000,-0.100000)"
fill="#000000" stroke="none">
<path d="M399 567 c-19 -18 -42 -38 -51 -43 -9 -5 -39 -30 -67 -56 -28 -26
-51 -46 -51 -44 0 2 -43 -37 -94 -88 -60 -57 -97 -101 -100 -117 -5 -30 26
-106 52 -125 11 -9 13 -13 4 -14 -7 0 -11 -4 -8 -9 3 -5 -1 -11 -9 -15 -8 -3
-15 -12 -15 -21 0 -8 -5 -15 -12 -15 -8 0 -9 -3 -2 -10 7 -7 113 -9 297 -8
l288 3 -30 33 c-17 17 -34 32 -39 32 -19 0 -20 27 -1 38 10 7 21 11 23 10 2
-2 14 10 27 26 12 16 33 39 47 53 13 13 21 30 18 38 -3 8 -2 15 3 15 9 0 9 7
13 143 1 68 -2 91 -13 98 -8 5 -11 9 -7 9 4 0 -1 15 -12 33 -11 17 -23 40 -26
50 -8 22 -16 22 -37 -3 -9 -11 -14 -20 -11 -20 4 0 1 -7 -6 -15 -6 -8 -9 -19
-5 -25 3 -5 1 -10 -4 -10 -6 0 -11 -10 -11 -22 0 -19 -3 -18 -25 12 -14 19
-25 38 -25 42 0 14 -48 58 -63 58 -8 0 -29 -15 -48 -33z"/>
</g>
</svg>
