<?xml version="1.0" standalone="no"?>
<!DOCTYPE svg PUBLIC "-//W3C//DTD SVG 20010904//EN"
 "http://www.w3.org/TR/2001/REC-SVG-20010904/DTD/svg10.dtd">
<svg version="1.0" xmlns="http://www.w3.org/2000/svg"
 width="128.000000pt" height="128.000000pt" viewBox="0 0 128.000000 128.000000"
 preserveAspectRatio="xMidYMid meet">
<metadata>
Created by potrace 1.14, written by Peter Selinger 2001-2017
</metadata>
<g transform="translate(0.000000,128.000000) scale(0.100000,-0.100000)"
fill="#000000" stroke="none">
<path d="M45 1253 c-15 -16 -31 -38 -36 -51 -5 -13 -9 -276 -9 -613 l0 -589
640 0 640 0 0 80 0 80 -40 25 c-22 14 -44 25 -50 25 -5 0 -10 15 -10 34 0 25
-7 40 -26 55 -15 12 -33 21 -40 21 -12 0 -12 14 1 100 4 28 -19 63 -48 73 -16
6 -13 11 18 38 30 27 35 37 35 76 0 45 0 45 -30 41 l-30 -4 6 136 c3 85 1 146
-6 164 -11 31 -47 65 -68 66 -7 0 -10 5 -7 10 3 6 2 10 -4 10 -6 0 -8 7 -5 15
4 8 1 15 -5 15 -6 0 -11 5 -11 10 0 6 -16 36 -35 66 -19 30 -35 56 -35 59 0 2
-19 22 -42 44 l-43 40 -89 1 -88 0 -59 -62 c-33 -34 -59 -66 -59 -70 0 -4 -10
-14 -23 -23 -45 -29 -130 18 -158 89 -25 63 -32 66 -150 66 -105 0 -109 -1
-134 -27z m965 -883 c0 -35 -13 -43 -54 -32 -40 11 -43 28 -9 46 45 25 63 21
63 -14z"/>
</g>
</svg>
