<?xml version="1.0" standalone="no"?>
<!DOCTYPE svg PUBLIC "-//W3C//DTD SVG 20010904//EN"
 "http://www.w3.org/TR/2001/REC-SVG-20010904/DTD/svg10.dtd">
<svg version="1.0" xmlns="http://www.w3.org/2000/svg"
 width="128.000000pt" height="128.000000pt" viewBox="0 0 128.000000 128.000000"
 preserveAspectRatio="xMidYMid meet">
<metadata>
Created by potrace 1.14, written by Peter Selinger 2001-2017
</metadata>
<g transform="translate(0.000000,128.000000) scale(0.100000,-0.100000)"
fill="#000000" stroke="none">
<path d="M160 1027 c0 -4 -5 -5 -10 -2 -16 10 -120 -72 -120 -94 0 -5 -5 -11
-12 -13 -8 -3 -13 -37 -16 -102 -3 -79 -1 -102 13 -123 11 -17 13 -23 4 -17
-11 6 -12 5 -2 -8 7 -8 9 -19 5 -23 -4 -5 -1 -5 6 -1 8 5 16 -1 21 -16 6 -13
10 -16 11 -8 0 12 2 12 9 2 4 -8 11 -13 15 -13 23 3 33 -1 33 -14 0 -8 -3 -15
-7 -15 -3 0 -6 -10 -7 -22 -3 -36 -27 -108 -36 -108 -4 0 -6 -4 -3 -9 4 -5 1
-11 -4 -13 -6 -2 -12 -10 -13 -18 -2 -8 -5 -19 -8 -25 -3 -5 -5 -34 -5 -63 1
-40 -2 -53 -15 -57 -15 -5 -17 -24 -18 -135 l-2 -130 439 0 439 0 -5 25 c-2
14 -11 25 -21 25 -14 0 -14 2 -1 10 13 8 12 10 -3 10 -10 0 -15 5 -12 10 3 6
1 10 -5 10 -6 0 -8 5 -4 12 4 6 3 8 -3 5 -6 -4 -19 1 -29 9 -10 9 -12 12 -4 8
13 -7 13 -5 1 9 -7 9 -17 15 -21 12 -4 -3 -14 3 -21 12 -8 9 -9 14 -3 10 7 -4
15 0 18 9 3 9 11 14 18 12 6 -2 24 9 39 25 15 15 29 27 31 26 2 -2 14 1 28 5
14 5 28 9 32 10 26 4 90 55 105 83 11 21 35 41 68 57 62 30 88 39 81 27 -3 -5
4 -11 17 -15 12 -3 23 -1 25 4 2 5 10 6 18 3 18 -7 54 33 54 59 0 35 -32 64
-70 63 -19 0 -38 -5 -43 -12 -11 -18 -46 -7 -68 22 -11 14 -27 25 -34 25 -11
0 -13 18 -11 83 2 63 -1 86 -13 101 -10 12 -11 16 -3 12 8 -5 3 8 -9 27 -13
19 -27 33 -31 31 -5 -3 -8 0 -8 5 0 6 -1 14 -2 19 -2 6 -57 30 -85 36 -7 1
-15 5 -19 8 -3 4 -12 4 -20 1 -8 -3 -14 0 -14 7 0 6 -12 2 -27 -10 -16 -12
-29 -17 -31 -11 -2 6 -10 11 -18 11 -9 0 -12 5 -9 10 3 6 -1 10 -10 10 -8 0
-19 8 -22 18 -4 9 -15 24 -25 33 -10 9 -15 19 -11 23 3 3 -1 6 -10 6 -10 0
-17 4 -17 8 0 11 -90 42 -123 42 -45 0 -78 -22 -104 -67 -10 -17 -10 -24 -1
-29 8 -5 5 -10 -8 -14 -21 -8 -63 17 -64 37 0 6 -10 15 -22 19 -13 4 -28 14
-35 23 -7 9 -13 13 -13 8 0 -4 -14 0 -30 8 -31 16 -110 18 -110 2z"/>
</g>
</svg>
